<svg width="361" height="65" viewBox="0 0 361 65" fill="none" xmlns="http://www.w3.org/2000/svg">
<path d="M25.5401 51.59C17.4801 51.59 11.2634 49.54 6.89008 45.44C2.51674 41.3467 0.330078 34.7967 0.330078 25.79C0.330078 8.59667 8.69008 0 25.4101 0C29.4634 0 33.2301 0.489997 36.7101 1.47C40.1901 2.45666 42.7834 3.54666 44.4901 4.74V20.74H29.1301V16.13C29.1301 14.51 28.7667 13.3167 28.0401 12.55C27.3134 11.7767 26.2234 11.39 24.7701 11.39C23.3234 11.39 22.2367 11.7767 21.5101 12.55C20.7834 13.3167 20.4201 14.51 20.4201 16.13V35.46C20.4201 37.08 20.7834 38.2733 21.5101 39.04C22.2367 39.8067 23.3234 40.19 24.7701 40.19C26.2234 40.19 27.3134 39.8067 28.0401 39.04C28.7667 38.2733 29.1301 37.08 29.1301 35.46V30.27H44.4901V46.85C42.7367 48.0433 40.1434 49.13 36.7101 50.11C33.2767 51.0967 29.5534 51.59 25.5401 51.59ZM65.8601 51.59C59.8001 51.59 55.0634 50 51.6501 46.82C48.2367 43.64 46.5301 39 46.5301 32.9C46.5301 26.8 48.2367 22.16 51.6501 18.98C55.0634 15.8 59.8001 14.21 65.8601 14.21C72.0067 14.21 76.7634 15.82 80.1301 19.04C83.5034 22.26 85.1901 26.88 85.1901 32.9C85.1901 39 83.4834 43.64 80.0701 46.82C76.6567 50 71.9201 51.59 65.8601 51.59ZM65.8601 40.19C67.1001 40.19 68.0301 39.86 68.6501 39.2C69.2634 38.54 69.5701 37.5067 69.5701 36.1V29.7C69.5701 28.2933 69.2634 27.2567 68.6501 26.59C68.0301 25.93 67.1001 25.6 65.8601 25.6C64.6267 25.6 63.7001 25.93 63.0801 26.59C62.4601 27.2567 62.1501 28.2933 62.1501 29.7V36.1C62.1501 37.5067 62.4601 38.54 63.0801 39.2C63.7001 39.86 64.6267 40.19 65.8601 40.19ZM99.8501 51.59C95.4967 51.59 92.2201 49.9667 90.0201 46.72C87.8267 43.48 86.7301 38.8733 86.7301 32.9C86.7301 26.9267 87.8267 22.3167 90.0201 19.07C92.2201 15.83 95.4967 14.21 99.8501 14.21C102.023 14.21 103.953 14.7433 105.64 15.81C107.327 16.8767 108.703 18.0933 109.77 19.46V11.39H105.99V0.899998H124.49V40.19H127.3V50.69H109.77V46.34C108.703 47.7067 107.327 48.9233 105.64 49.99C103.953 51.0567 102.023 51.59 99.8501 51.59ZM106.05 40.19C107.29 40.19 108.22 39.86 108.84 39.2C109.46 38.54 109.77 37.5067 109.77 36.1V29.7C109.77 28.2933 109.46 27.2567 108.84 26.59C108.22 25.93 107.29 25.6 106.05 25.6C104.817 25.6 103.89 25.93 103.27 26.59C102.65 27.2567 102.34 28.2933 102.34 29.7V36.1C102.34 37.5067 102.65 38.54 103.27 39.2C103.89 39.86 104.817 40.19 106.05 40.19ZM148.42 51.59C142.36 51.59 137.623 50 134.21 46.82C130.797 43.64 129.09 39 129.09 32.9C129.09 26.8 130.797 22.16 134.21 18.98C137.623 15.8 142.36 14.21 148.42 14.21C154.44 14.21 158.783 15.7767 161.45 18.91C164.117 22.05 165.45 25.9433 165.45 30.59V35.2H144.71V35.59C144.71 37.1633 145.18 38.3233 146.12 39.07C147.06 39.8167 148.617 40.19 150.79 40.19C153.39 40.19 155.863 40 158.21 39.62C160.557 39.2333 162.607 38.7433 164.36 38.15V48.39C162.867 49.1967 160.68 49.93 157.8 50.59C154.92 51.2567 151.793 51.59 148.42 51.59ZM144.71 28.16H152.13V27.39C152.13 25.9433 151.823 24.9 151.21 24.26C150.59 23.62 149.66 23.3 148.42 23.3C147.187 23.3 146.26 23.63 145.64 24.29C145.02 24.95 144.71 25.9833 144.71 27.39V28.16ZM186.69 50.69V40.19H189.89V11.39H186.69V0.899998H216.07C221.577 0.899998 225.78 2.03 228.68 4.29C231.58 6.55 233.03 10.22 233.03 15.3C233.03 18.16 232.453 20.6333 231.3 22.72C230.147 24.8133 228.503 26.2633 226.37 27.07L226.44 27.71C230.533 28.35 232.58 30.87 232.58 35.27V40.19H235.59V50.69H215.3V35.65C215.3 33.9833 215.057 32.7233 214.57 31.87C214.077 31.0167 213.307 30.4433 212.26 30.15C211.213 29.85 209.73 29.7 207.81 29.7V40.19H212.04V50.69H186.69ZM207.81 21.89H211.27C212.51 21.89 213.437 21.56 214.05 20.9C214.67 20.24 214.98 19.2033 214.98 17.79V15.49C214.98 14.0833 214.67 13.05 214.05 12.39C213.437 11.7233 212.51 11.39 211.27 11.39H207.81V21.89ZM258.5 15.11H276.29V25.6H273.86L265.48 47.81C263.387 53.3967 260.997 57.59 258.31 60.39C255.623 63.1833 252.083 64.58 247.69 64.58C245.897 64.58 244.083 64.3967 242.25 64.03C240.41 63.67 238.743 63.17 237.25 62.53V50.95H246.09V51.59C246.09 52.6567 246.643 53.19 247.75 53.19C248.73 53.19 249.477 52.72 249.99 51.78L239.88 25.6H237.45V15.11H256.45V25.6H254.28L257.61 35.59L260.68 25.6H258.5V15.11ZM312.71 40.19H315.53V50.69H298.63V46.34C297.69 47.7067 296.377 48.9233 294.69 49.99C293.01 51.0567 290.953 51.59 288.52 51.59C285.32 51.59 282.803 50.7367 280.97 49.03C279.13 47.3233 278.21 44.91 278.21 41.79C278.21 33.73 285.06 29.5933 298.76 29.38C298.633 27.9267 298.077 26.9333 297.09 26.4C296.11 25.8667 294.447 25.6 292.1 25.6C290.18 25.6 288.123 25.8033 285.93 26.21C283.73 26.6167 281.713 27.16 279.88 27.84V16.07C282.14 15.51 284.593 15.06 287.24 14.72C289.887 14.38 292.467 14.21 294.98 14.21C301.34 14.21 305.883 15.3633 308.61 17.67C311.343 19.97 312.71 23.53 312.71 28.35V40.19ZM298.63 36.1V35.71C296.71 35.71 295.227 35.9667 294.18 36.48C293.133 36.9933 292.61 37.8467 292.61 39.04C292.61 39.7667 292.837 40.3533 293.29 40.8C293.737 41.2467 294.363 41.47 295.17 41.47C296.283 41.47 297.137 41.0033 297.73 40.07C298.33 39.13 298.63 37.8067 298.63 36.1ZM357.25 40.19H360.07V50.69H339.85V40.19H342.53V29.7C342.53 28.2933 342.233 27.2567 341.64 26.59C341.04 25.93 340.143 25.6 338.95 25.6C336.39 25.6 335.11 26.9667 335.11 29.7V40.19H337.8V50.69H317.57V40.19H320.39V25.6H317.57V15.11H335.11V20.1C338.183 16.1733 342.023 14.21 346.63 14.21C350.17 14.21 352.827 15.32 354.6 17.54C356.367 19.76 357.25 22.81 357.25 26.69V40.19Z" fill="#FFC55E"/>
</svg>
