<svg width="514.4000366210937px" height="138.8px" xmlns="http://www.w3.org/2000/svg" viewBox="-7.200018310546852 5.599999999999994 514.4000366210937 138.8" style="background: rgba(89, 104, 134, 0);" preserveAspectRatio="xMidYMid"><defs><filter id="editing-hover" x="-100%" y="-100%" width="300%" height="300%"><feFlood flood-color="rgba(0%,0%,0%,0.583)" result="flood"></feFlood><feComposite operator="in" in2="SourceAlpha" in="flood" result="shadow"></feComposite><feOffset dx="-3.3" dy="-2.6" in="SourceGraphic" result="offset-1"></feOffset><feOffset dx="3.3" dy="2.6" in="shadow" result="offset-2"></feOffset><feMerge><feMergeNode in="offset-2"></feMergeNode><feMergeNode in="offset-1"></feMergeNode></feMerge></filter></defs><g filter="url(#editing-hover)"><g transform="translate(69.22997432947159, 107.29000282287598)"><path d="M26.11 0.90L26.11 0.90Q14.02 0.90 7.46-5.25L7.46-5.25L7.46-5.25Q0.90-11.39 0.90-24.90L0.90-24.90L0.90-24.90Q0.90-50.69 25.98-50.69L25.98-50.69L25.98-50.69Q32.06-50.69 37.28-49.22L37.28-49.22L37.28-49.22Q42.50-47.74 45.06-45.95L45.06-45.95L45.06-29.95L29.70-29.95L29.70-34.56L29.70-34.56Q29.70-36.99 28.61-38.14L28.61-38.14L28.61-38.14Q27.52-39.30 25.34-39.30L25.34-39.30L25.34-39.30Q23.17-39.30 22.08-38.14L22.08-38.14L22.08-38.14Q20.99-36.99 20.99-34.56L20.99-34.56L20.99-15.23L20.99-15.23Q20.99-12.80 22.08-11.65L22.08-11.65L22.08-11.65Q23.17-10.50 25.34-10.50L25.34-10.50L25.34-10.50Q27.52-10.50 28.61-11.65L28.61-11.65L28.61-11.65Q29.70-12.80 29.70-15.23L29.70-15.23L29.70-20.42L45.06-20.42L45.06-3.84L45.06-3.84Q42.43-2.05 37.28-0.58L37.28-0.58L37.28-0.58Q32.13 0.90 26.11 0.90L26.11 0.90ZM66.43 0.90L66.43 0.90Q57.34 0.90 52.22-3.87L52.22-3.87L52.22-3.87Q47.10-8.64 47.10-17.79L47.10-17.79L47.10-17.79Q47.10-26.94 52.22-31.71L52.22-31.71L52.22-31.71Q57.34-36.48 66.43-36.48L66.43-36.48L66.43-36.48Q75.65-36.48 80.70-31.65L80.70-31.65L80.70-31.65Q85.76-26.82 85.76-17.79L85.76-17.79L85.76-17.79Q85.76-8.64 80.64-3.87L80.64-3.87L80.64-3.87Q75.52 0.90 66.43 0.90L66.43 0.90ZM66.43-10.50L66.43-10.50Q68.29-10.50 69.22-11.49L69.22-11.49L69.22-11.49Q70.14-12.48 70.14-14.59L70.14-14.59L70.14-20.99L70.14-20.99Q70.14-23.10 69.22-24.10L69.22-24.10L69.22-24.10Q68.29-25.09 66.43-25.09L66.43-25.09L66.43-25.09Q64.58-25.09 63.65-24.10L63.65-24.10L63.65-24.10Q62.72-23.10 62.72-20.99L62.72-20.99L62.72-14.59L62.72-14.59Q62.72-12.48 63.65-11.49L63.65-11.49L63.65-11.49Q64.58-10.50 66.43-10.50L66.43-10.50ZM100.42 0.90L100.42 0.90Q93.89 0.90 90.59-3.97L90.59-3.97L90.59-3.97Q87.30-8.83 87.30-17.79L87.30-17.79L87.30-17.79Q87.30-26.75 90.59-31.62L90.59-31.62L90.59-31.62Q93.89-36.48 100.42-36.48L100.42-36.48L100.42-36.48Q103.68-36.48 106.21-34.88L106.21-34.88L106.21-34.88Q108.74-33.28 110.34-31.23L110.34-31.23L110.34-39.30L106.56-39.30L106.56-49.79L125.06-49.79L125.06-10.50L127.87-10.50L127.87 0L110.34 0L110.34-4.35L110.34-4.35Q108.74-2.30 106.21-0.70L106.21-0.70L106.21-0.70Q103.68 0.90 100.42 0.90L100.42 0.90ZM106.62-10.50L106.62-10.50Q108.48-10.50 109.41-11.49L109.41-11.49L109.41-11.49Q110.34-12.48 110.34-14.59L110.34-14.59L110.34-20.99L110.34-20.99Q110.34-23.10 109.41-24.10L109.41-24.10L109.41-24.10Q108.48-25.09 106.62-25.09L106.62-25.09L106.62-25.09Q104.77-25.09 103.84-24.10L103.84-24.10L103.84-24.10Q102.91-23.10 102.91-20.99L102.91-20.99L102.91-14.59L102.91-14.59Q102.91-12.48 103.84-11.49L103.84-11.49L103.84-11.49Q104.77-10.50 106.62-10.50L106.62-10.50ZM148.99 0.90L148.99 0.90Q139.90 0.90 134.78-3.87L134.78-3.87L134.78-3.87Q129.66-8.64 129.66-17.79L129.66-17.79L129.66-17.79Q129.66-26.94 134.78-31.71L134.78-31.71L134.78-31.71Q139.90-36.48 148.99-36.48L148.99-36.48L148.99-36.48Q158.02-36.48 162.02-31.78L162.02-31.78L162.02-31.78Q166.02-27.07 166.02-20.10L166.02-20.10L166.02-15.49L145.28-15.49L145.28-15.10L145.28-15.10Q145.28-12.74 146.69-11.62L146.69-11.62L146.69-11.62Q148.10-10.50 151.36-10.50L151.36-10.50L151.36-10.50Q155.26-10.50 158.78-11.07L158.78-11.07L158.78-11.07Q162.30-11.65 164.93-12.54L164.93-12.54L164.93-2.30L164.93-2.30Q162.69-1.09 158.37-0.10L158.37-0.10L158.37-0.10Q154.05 0.90 148.99 0.90L148.99 0.90ZM145.28-22.53L152.70-22.53L152.70-23.30L152.70-23.30Q152.70-25.47 151.78-26.43L151.78-26.43L151.78-26.43Q150.85-27.39 148.99-27.39L148.99-27.39L148.99-27.39Q147.14-27.39 146.21-26.40L146.21-26.40L146.21-26.40Q145.28-25.41 145.28-23.30L145.28-23.30L145.28-22.53ZM187.26 0L187.26-10.50L190.46-10.50L190.46-39.30L187.26-39.30L187.26-49.79L216.64-49.79L216.64-49.79Q224.90-49.79 229.25-46.40L229.25-46.40L229.25-46.40Q233.60-43.01 233.60-35.39L233.60-35.39L233.60-35.39Q233.60-31.10 231.87-27.97L231.87-27.97L231.87-27.97Q230.14-24.83 226.94-23.62L226.94-23.62L227.01-22.98L227.01-22.98Q233.15-22.02 233.15-15.42L233.15-15.42L233.15-10.50L236.16-10.50L236.16 0L215.87 0L215.87-15.04L215.87-15.04Q215.87-17.54 215.14-18.82L215.14-18.82L215.14-18.82Q214.40-20.10 212.83-20.54L212.83-20.54L212.83-20.54Q211.26-20.99 208.38-20.99L208.38-20.99L208.38-10.50L212.61-10.50L212.61 0L187.26 0ZM208.38-28.80L211.84-28.80L211.84-28.80Q213.70-28.80 214.62-29.79L214.62-29.79L214.62-29.79Q215.55-30.78 215.55-32.90L215.55-32.90L215.55-35.20L215.55-35.20Q215.55-37.31 214.62-38.30L214.62-38.30L214.62-38.30Q213.70-39.30 211.84-39.30L211.84-39.30L208.38-39.30L208.38-28.80ZM259.07-35.58L276.86-35.58L276.86-25.09L274.43-25.09L266.05-2.88L266.05-2.88Q262.91 5.50 258.88 9.70L258.88 9.70L258.88 9.70Q254.85 13.89 248.26 13.89L248.26 13.89L248.26 13.89Q245.57 13.89 242.82 13.34L242.82 13.34L242.82 13.34Q240.06 12.80 237.82 11.84L237.82 11.84L237.82 0.26L246.66 0.26L246.66 0.90L246.66 0.90Q246.66 2.50 248.32 2.50L248.32 2.50L248.32 2.50Q249.79 2.50 250.56 1.09L250.56 1.09L240.45-25.09L238.02-25.09L238.02-35.58L257.02-35.58L257.02-25.09L254.85-25.09L258.18-15.10L261.25-25.09L259.07-25.09L259.07-35.58ZM313.28-10.50L316.10-10.50L316.10 0L299.20 0L299.20-4.35L299.20-4.35Q297.79-2.30 295.26-0.70L295.26-0.70L295.26-0.70Q292.74 0.90 289.09 0.90L289.09 0.90L289.09 0.90Q284.29 0.90 281.54-1.66L281.54-1.66L281.54-1.66Q278.78-4.22 278.78-8.90L278.78-8.90L278.78-8.90Q278.78-20.99 299.33-21.31L299.33-21.31L299.33-21.31Q299.14-23.49 297.66-24.29L297.66-24.29L297.66-24.29Q296.19-25.09 292.67-25.09L292.67-25.09L292.67-25.09Q289.79-25.09 286.50-24.48L286.50-24.48L286.50-24.48Q283.20-23.87 280.45-22.85L280.45-22.85L280.45-34.62L280.45-34.62Q283.84-35.46 287.81-35.97L287.81-35.97L287.81-35.97Q291.78-36.48 295.55-36.48L295.55-36.48L295.55-36.48Q305.09-36.48 309.18-33.02L309.18-33.02L309.18-33.02Q313.28-29.57 313.28-22.34L313.28-22.34L313.28-10.50ZM299.20-14.59L299.20-14.98L299.20-14.98Q296.32-14.98 294.75-14.21L294.75-14.21L294.75-14.21Q293.18-13.44 293.18-11.65L293.18-11.65L293.18-11.65Q293.18-10.56 293.86-9.89L293.86-9.89L293.86-9.89Q294.53-9.22 295.74-9.22L295.74-9.22L295.74-9.22Q297.41-9.22 298.30-10.62L298.30-10.62L298.30-10.62Q299.20-12.03 299.20-14.59L299.20-14.59ZM357.82-10.50L360.64-10.50L360.64 0L340.42 0L340.42-10.50L343.10-10.50L343.10-20.99L343.10-20.99Q343.10-23.10 342.21-24.10L342.21-24.10L342.21-24.10Q341.31-25.09 339.52-25.09L339.52-25.09L339.52-25.09Q335.68-25.09 335.68-20.99L335.68-20.99L335.68-10.50L338.37-10.50L338.37 0L318.14 0L318.14-10.50L320.96-10.50L320.96-25.09L318.14-25.09L318.14-35.58L335.68-35.58L335.68-30.59L335.68-30.59Q340.29-36.48 347.20-36.48L347.20-36.48L347.20-36.48Q352.51-36.48 355.17-33.15L355.17-33.15L355.17-33.15Q357.82-29.82 357.82-24L357.82-24L357.82-10.50Z" fill="#ffc55e"></path></g></g><style>text {
  font-size: 64px;
  font-family: Arial Black;
  dominant-baseline: central;
  text-anchor: middle;
}</style></svg>